<svg width="18" height="17" viewBox="0 0 18 17" fill="none" xmlns="http://www.w3.org/2000/svg">
<path fill-rule="evenodd" clip-rule="evenodd" d="M15 2H3C2.44772 2 2 2.44772 2 3V5H16V3C16 2.44772 15.5523 2 15 2ZM2 14V7H16V14C16 14.5523 15.5523 15 15 15H3C2.44772 15 2 14.5523 2 14ZM3 0C1.34315 0 0 1.34315 0 3V14C0 15.6569 1.34315 17 3 17H15C16.6569 17 18 15.6569 18 14V3C18 1.34315 16.6569 0 15 0H3ZM12 10C11.4477 10 11 10.4477 11 11V13C11 13.5523 11.4477 14 12 14H14C14.5523 14 15 13.5523 15 13V11C15 10.4477 14.5523 10 14 10H12Z" fill="#8A96D6"/>
</svg>
