<svg width="713" height="713" viewBox="0 0 713 713" fill="none" xmlns="http://www.w3.org/2000/svg">
<path d="M713 356.5C713 553.39 553.39 713 356.5 713C159.61 713 0 553.39 0 356.5C0 159.61 159.61 0 356.5 0C553.39 0 713 159.61 713 356.5Z" fill="url(#paint0_linear_116_95)"/>
<path d="M713 356.5C713 553.39 553.39 713 356.5 713C159.61 713 0 553.39 0 356.5C0 159.61 159.61 0 356.5 0C553.39 0 713 159.61 713 356.5Z" fill="url(#paint1_linear_116_95)" fill-opacity="0.2"/>
<defs>
<linearGradient id="paint0_linear_116_95" x1="444.297" y1="637.642" x2="-110.742" y2="-75.3577" gradientUnits="userSpaceOnUse">
<stop stop-color="#81BAEE"/>
<stop offset="1" stop-color="white" stop-opacity="0"/>
</linearGradient>
<linearGradient id="paint1_linear_116_95" x1="-244.067" y1="413.743" x2="431.254" y2="806.472" gradientUnits="userSpaceOnUse">
<stop stop-color="white"/>
<stop offset="1" stop-color="#9B48EE" stop-opacity="0"/>
</linearGradient>
</defs>
</svg>
