<svg width="629" height="629" viewBox="0 0 629 629" fill="none" xmlns="http://www.w3.org/2000/svg">
<path d="M629 314.5C629 488.194 488.194 629 314.5 629C140.806 629 0 488.194 0 314.5C0 140.806 140.806 0 314.5 0C488.194 0 629 140.806 629 314.5Z" fill="url(#paint0_linear_116_96)"/>
<path d="M629 314.5C629 488.194 488.194 629 314.5 629C140.806 629 0 488.194 0 314.5C0 140.806 140.806 0 314.5 0C488.194 0 629 140.806 629 314.5Z" fill="url(#paint1_linear_116_96)" fill-opacity="0.5"/>
<defs>
<linearGradient id="paint0_linear_116_96" x1="391.953" y1="562.52" x2="-97.6953" y2="-66.4796" gradientUnits="userSpaceOnUse">
<stop stop-color="#9AD2F1"/>
<stop offset="1" stop-color="white" stop-opacity="0"/>
</linearGradient>
<linearGradient id="paint1_linear_116_96" x1="-215.313" y1="364.999" x2="1048" y2="1244.5" gradientUnits="userSpaceOnUse">
<stop stop-color="white"/>
<stop offset="1" stop-color="#DC1BD4" stop-opacity="0"/>
</linearGradient>
</defs>
</svg>
