<svg width="467" height="467" viewBox="0 0 467 467" fill="none" xmlns="http://www.w3.org/2000/svg">
<path d="M467 233.5C467 362.458 362.458 467 233.5 467C104.542 467 0 362.458 0 233.5C0 104.542 104.542 0 233.5 0C362.458 0 467 104.542 467 233.5Z" fill="url(#paint0_linear_116_97)"/>
<path d="M467 233.5C467 362.458 362.458 467 233.5 467C104.542 467 0 362.458 0 233.5C0 104.542 104.542 0 233.5 0C362.458 0 467 104.542 467 233.5Z" fill="url(#paint1_linear_116_97)" fill-opacity="0.5"/>
<defs>
<linearGradient id="paint0_linear_116_97" x1="291.005" y1="417.642" x2="-72.5337" y2="-49.3577" gradientUnits="userSpaceOnUse">
<stop stop-color="#81E7EE"/>
<stop offset="1" stop-color="white" stop-opacity="0"/>
</linearGradient>
<linearGradient id="paint1_linear_116_97" x1="-159.859" y1="270.993" x2="342" y2="901" gradientUnits="userSpaceOnUse">
<stop stop-color="white"/>
<stop offset="1" stop-color="#9B48EE" stop-opacity="0"/>
</linearGradient>
</defs>
</svg>
