<svg width="37" height="28" viewBox="0 0 37 28" fill="#05B98C" xmlns="http://www.w3.org/2000/svg">
<path fill-rule="evenodd" clip-rule="evenodd" d="M17.3729 2.2277C17.742 1.9241 18.2743 1.9241 18.6434 2.2277L28.2498 10.1296V24.9492C28.2498 25.5015 27.8021 25.9492 27.2498 25.9492H23.0744C22.5221 25.9492 22.0744 25.5015 22.0744 24.9492V19.7627C22.0744 18.1058 20.7312 16.7627 19.0744 16.7627H16.4318C14.775 16.7627 13.4318 18.1058 13.4318 19.7627V24.9492C13.4318 25.5015 12.9841 25.9492 12.4318 25.9492H8.25635C7.70407 25.9492 7.25635 25.5015 7.25635 24.9492V10.5491L17.3729 2.2277ZM5.25635 12.1942L1.27052 15.4728L0 13.9282L16.1023 0.683105C17.2096 -0.2277 18.8066 -0.227703 19.9139 0.683104L36.0163 13.9282L34.7457 15.4728L30.2498 11.7747V24.9492C30.2498 26.6061 28.9067 27.9492 27.2498 27.9492H23.0744C21.4175 27.9492 20.0744 26.6061 20.0744 24.9492V19.7627C20.0744 19.2104 19.6267 18.7627 19.0744 18.7627L16.4318 18.7627C15.8795 18.7627 15.4318 19.2104 15.4318 19.7627V24.9492C15.4318 26.6061 14.0887 27.9492 12.4318 27.9492H8.25635C6.5995 27.9492 5.25635 26.6061 5.25635 24.9492V12.1942Z" />
</svg>
