<svg width="21" height="16" viewBox="0 0 21 16" fill="none" xmlns="http://www.w3.org/2000/svg">
<path fill-rule="evenodd" clip-rule="evenodd" d="M9.5 2.21512L1.23929 8.73673L0 7.16697L3.11964 4.70409V0.45185H5.11964V3.12514L8.26071 0.645351C9.35064 -0.215118 10.8887 -0.215116 11.9786 0.645352L20.2393 7.16697L19 8.73673L10.7393 2.21512C10.376 1.92829 9.86331 1.92829 9.5 2.21512ZM15 13V8H17V13C17 14.6569 15.6569 16 14 16H6C4.34315 16 3 14.6569 3 13V8H5V13C5 13.5523 5.44772 14 6 14H14C14.5523 14 15 13.5523 15 13Z" fill="#8A96D6"/>
</svg>
