<svg width="36" height="36" viewBox="0 0 36 36" fill="none" xmlns="http://www.w3.org/2000/svg">
<mask id="path-1-inside-1_252_210" fill="white">
<path fill-rule="evenodd" clip-rule="evenodd" d="M18 0C15.6804 0 13.8 1.8804 13.8 4.2C13.8 4.58763 13.5482 4.92801 13.185 5.06327C12.8272 5.19648 12.4765 5.3441 12.1335 5.50543C11.8567 5.63563 11.526 5.58579 11.3097 5.36947C9.66951 3.72927 7.01021 3.72927 5.37001 5.36947C3.72981 7.00968 3.72981 9.66897 5.37001 11.3092C5.58622 11.5254 5.63603 11.8559 5.50587 12.1326C5.34437 12.4759 5.1966 12.8269 5.06327 13.185C4.92801 13.5482 4.58763 13.8 4.2 13.8C1.8804 13.8 0 15.6804 0 18C0 20.3196 1.8804 22.2 4.2 22.2C4.58763 22.2 4.92801 22.4518 5.06327 22.815C5.18039 23.1296 5.30865 23.4387 5.44757 23.7419C5.60919 24.0946 5.54657 24.5138 5.27221 24.7881C3.63201 26.4283 3.63201 29.0876 5.27221 30.7278C6.91241 32.368 9.5717 32.368 11.2119 30.7278C11.4863 30.4535 11.9055 30.3908 12.2582 30.5525C12.5614 30.6914 12.8705 30.8196 13.185 30.9367C13.5482 31.072 13.8 31.4124 13.8 31.8C13.8 34.1196 15.6804 36 18 36C20.3196 36 22.2 34.1196 22.2 31.8C22.2 31.4124 22.4518 31.072 22.815 30.9367C23.0863 30.8357 23.3535 30.7265 23.6163 30.6092C24.0458 30.4176 24.5536 30.4928 24.8862 30.8253C26.5264 32.4655 29.1857 32.4655 30.8259 30.8253C32.4661 29.1851 32.4661 26.5258 30.8259 24.8856C30.4932 24.553 30.418 24.045 30.6096 23.6154C30.7267 23.3528 30.8359 23.0859 30.9367 22.815C31.072 22.4518 31.4124 22.2 31.8 22.2C34.1196 22.2 36 20.3196 36 18C36 15.6804 34.1196 13.8 31.8 13.8C31.4124 13.8 31.072 13.5482 30.9367 13.185C30.8197 12.8706 30.6915 12.5616 30.5526 12.2585C30.3909 11.9056 30.4536 11.4862 30.7281 11.2117C32.3683 9.57149 32.3683 6.9122 30.7281 5.272C29.0879 3.6318 26.4286 3.63179 24.7884 5.272C24.5139 5.54649 24.0945 5.60913 23.7416 5.44744C23.4385 5.30857 23.1295 5.18035 22.815 5.06327C22.4518 4.92801 22.2 4.58763 22.2 4.2C22.2 1.8804 20.3196 0 18 0ZM18 22.2C20.3196 22.2 22.2 20.3196 22.2 18C22.2 15.6804 20.3196 13.8 18 13.8C15.6804 13.8 13.8 15.6804 13.8 18C13.8 20.3196 15.6804 22.2 18 22.2Z"/>
</mask>
<path d="M5.37001 5.36947L3.9558 3.95526V3.95526L5.37001 5.36947ZM30.7281 5.272L32.1423 3.85778V3.85778L30.7281 5.272ZM22.815 5.06327L22.1171 6.93756L22.815 5.06327ZM30.5526 12.2585L32.3709 11.4255L30.5526 12.2585ZM30.9367 13.185L32.811 12.4871L30.9367 13.185ZM30.9367 22.815L29.0624 22.1171L30.9367 22.815ZM30.6096 23.6154L28.7831 22.8007L30.6096 23.6154ZM22.815 30.9367L23.5129 32.811L22.815 30.9367ZM12.2582 30.5525L13.0913 28.7342L12.2582 30.5525ZM5.06327 13.185L3.18899 12.4871L5.06327 13.185ZM12.1335 5.50543L12.9847 7.31524L12.1335 5.50543ZM23.6163 30.6092L22.8015 28.7827L23.6163 30.6092ZM5.06327 22.815L3.18899 23.5129L5.06327 22.815ZM13.185 30.9367L13.8829 29.0624L13.185 30.9367ZM5.50587 12.1326L3.69612 11.2812L5.50587 12.1326ZM5.44757 23.7419L3.62933 24.5749L5.44757 23.7419ZM13.185 5.06327L12.4871 3.18899L13.185 5.06327ZM15.8 4.2C15.8 2.98497 16.785 2 18 2V-2C14.5758 -2 11.8 0.775832 11.8 4.2H15.8ZM12.9847 7.31524C13.2778 7.1774 13.5774 7.05131 13.8829 6.93756L12.4871 3.18899C12.0771 3.34164 11.6752 3.51079 11.2823 3.69561L12.9847 7.31524ZM6.78423 6.78369C7.64338 5.92453 9.03634 5.92453 9.89549 6.78369L12.7239 3.95526C10.3027 1.53401 6.37705 1.53401 3.9558 3.95526L6.78423 6.78369ZM6.78422 9.89496C5.92507 9.0358 5.92507 7.64284 6.78423 6.78369L3.9558 3.95526C1.53455 6.37651 1.53455 10.3021 3.9558 12.7234L6.78422 9.89496ZM6.93756 13.8829C7.05142 13.5771 7.17763 13.2772 7.31561 12.9839L3.69612 11.2812C3.5111 11.6745 3.34178 12.0767 3.18899 12.4871L6.93756 13.8829ZM2 18C2 16.785 2.98497 15.8 4.2 15.8L4.2 11.8C0.775834 11.8 -2 14.5758 -2 18H2ZM4.2 20.2C2.98497 20.2 2 19.215 2 18H-2C-2 21.4242 0.775831 24.2 4.2 24.2V20.2ZM7.26581 22.9088C7.14712 22.6498 7.03757 22.3857 6.93756 22.1171L3.18899 23.5129C3.3232 23.8734 3.47017 24.2276 3.62933 24.5749L7.26581 22.9088ZM6.68642 29.3136C5.82727 28.4545 5.82727 27.0615 6.68642 26.2024L3.85799 23.3739C1.43674 25.7952 1.43674 29.7208 3.85799 32.1421L6.68642 29.3136ZM9.79769 29.3136C8.93854 30.1728 7.54557 30.1728 6.68642 29.3136L3.85799 32.1421C6.27924 34.5633 10.2049 34.5633 12.6261 32.1421L9.79769 29.3136ZM13.8829 29.0624C13.6143 28.9624 13.3503 28.8529 13.0913 28.7342L11.4252 32.3707C11.7725 32.5299 12.1267 32.6768 12.4871 32.811L13.8829 29.0624ZM18 34C16.785 34 15.8 33.015 15.8 31.8H11.8C11.8 35.2242 14.5758 38 18 38V34ZM20.2 31.8C20.2 33.015 19.215 34 18 34V38C21.4242 38 24.2 35.2242 24.2 31.8H20.2ZM22.8015 28.7827C22.577 28.8829 22.3488 28.9762 22.1171 29.0624L23.5129 32.811C23.8238 32.6953 24.1299 32.5701 24.4311 32.4357L22.8015 28.7827ZM29.4116 29.4111C28.5525 30.2703 27.1595 30.2703 26.3004 29.4111L23.4719 32.2395C25.8932 34.6608 29.8188 34.6608 32.2401 32.2395L29.4116 29.4111ZM29.4116 26.2998C30.2708 27.159 30.2708 28.552 29.4116 29.4111L32.2401 32.2395C34.6613 29.8183 34.6613 25.8927 32.2401 23.4714L29.4116 26.2998ZM29.0624 22.1171C28.9763 22.3485 28.8831 22.5764 28.7831 22.8007L32.4362 24.43C32.5704 24.1292 32.6954 23.8234 32.811 23.5129L29.0624 22.1171ZM34 18C34 19.215 33.015 20.2 31.8 20.2V24.2C35.2242 24.2 38 21.4242 38 18H34ZM31.8 15.8C33.015 15.8 34 16.785 34 18H38C38 14.5758 35.2242 11.8 31.8 11.8V15.8ZM28.7343 13.0915C28.853 13.3504 28.9625 13.6144 29.0624 13.8829L32.811 12.4871C32.6768 12.1268 32.5299 11.7727 32.3709 11.4255L28.7343 13.0915ZM29.3138 6.68621C30.173 7.54536 30.173 8.93833 29.3138 9.79748L32.1423 12.6259C34.5635 10.2047 34.5635 6.27903 32.1423 3.85778L29.3138 6.68621ZM26.2026 6.68621C27.0617 5.82706 28.4547 5.82706 29.3138 6.68621L32.1423 3.85778C29.721 1.43653 25.7954 1.43653 23.3741 3.85778L26.2026 6.68621ZM22.1171 6.93756C22.3857 7.03754 22.6496 7.14706 22.9086 7.2657L24.5746 3.62919C24.2274 3.47008 23.8733 3.32316 23.5129 3.18899L22.1171 6.93756ZM18 2C19.215 2 20.2 2.98497 20.2 4.2H24.2C24.2 0.775833 21.4242 -2 18 -2V2ZM20.2 18C20.2 19.215 19.215 20.2 18 20.2V24.2C21.4242 24.2 24.2 21.4242 24.2 18H20.2ZM18 15.8C19.215 15.8 20.2 16.785 20.2 18H24.2C24.2 14.5758 21.4242 11.8 18 11.8V15.8ZM15.8 18C15.8 16.785 16.785 15.8 18 15.8V11.8C14.5758 11.8 11.8 14.5758 11.8 18H15.8ZM18 20.2C16.785 20.2 15.8 19.215 15.8 18H11.8C11.8 21.4242 14.5758 24.2 18 24.2V20.2ZM23.5129 3.18899C23.8804 3.32581 24.2 3.69793 24.2 4.2H20.2C20.2 5.47733 21.0231 6.53021 22.1171 6.93756L23.5129 3.18899ZM23.3741 3.85778C23.729 3.50288 24.2181 3.46586 24.5746 3.62919L22.9086 7.2657C23.9709 7.7524 25.2987 7.5901 26.2026 6.68621L23.3741 3.85778ZM32.3709 11.4255C32.5342 11.7819 32.4972 12.271 32.1423 12.6259L29.3138 9.79748C28.4099 10.7014 28.2476 12.0292 28.7343 13.0915L32.3709 11.4255ZM31.8 11.8C32.3021 11.8 32.6742 12.1196 32.811 12.4871L29.0624 13.8829C29.4698 14.9769 30.5227 15.8 31.8 15.8V11.8ZM32.811 23.5129C32.6742 23.8804 32.3021 24.2 31.8 24.2V20.2C30.5227 20.2 29.4698 21.0231 29.0624 22.1171L32.811 23.5129ZM32.2401 23.4714C32.5394 23.7708 32.5546 24.1645 32.4362 24.43L28.7831 22.8007C28.2814 23.9255 28.447 25.3352 29.4116 26.2998L32.2401 23.4714ZM24.2 31.8C24.2 32.3021 23.8804 32.6742 23.5129 32.811L22.1171 29.0624C21.0231 29.4698 20.2 30.5227 20.2 31.8H24.2ZM12.6261 32.1421C12.2711 32.4971 11.7818 32.5341 11.4252 32.3707L13.0913 28.7342C12.0291 28.2476 10.7015 28.4099 9.79769 29.3136L12.6261 32.1421ZM3.18899 12.4871C3.32581 12.1196 3.69794 11.8 4.2 11.8V15.8C5.47733 15.8 6.53021 14.9769 6.93756 13.8829L3.18899 12.4871ZM11.2823 3.69561C11.7289 3.48557 12.3136 3.54494 12.7239 3.95526L9.89549 6.78369C10.7384 7.62664 11.9845 7.78568 12.9847 7.31524L11.2823 3.69561ZM24.4311 32.4357C24.1654 32.5542 23.7715 32.539 23.4719 32.2395L26.3004 29.4111C25.3358 28.4465 23.9262 28.281 22.8015 28.7827L24.4311 32.4357ZM4.2 24.2C3.69793 24.2 3.32581 23.8804 3.18899 23.5129L6.93756 22.1171C6.53021 21.0231 5.47733 20.2 4.2 20.2V24.2ZM12.4871 32.811C12.1196 32.6742 11.8 32.3021 11.8 31.8H15.8C15.8 30.5227 14.9769 29.4698 13.8829 29.0624L12.4871 32.811ZM3.9558 12.7234C3.54535 12.3129 3.48595 11.728 3.69612 11.2812L7.31561 12.9839C7.78611 11.9838 7.6271 10.7378 6.78422 9.89496L3.9558 12.7234ZM3.62933 24.5749C3.46591 24.2183 3.50297 23.729 3.85799 23.3739L6.68642 26.2024C7.59018 25.2986 7.75247 23.971 7.26581 22.9088L3.62933 24.5749ZM11.8 4.2C11.8 3.69793 12.1196 3.32581 12.4871 3.18899L13.8829 6.93756C14.9769 6.53021 15.8 5.47733 15.8 4.2H11.8Z" fill="#798A89" mask="url(#path-1-inside-1_252_210)"/>
</svg>
