<svg width="34" height="21" viewBox="0 0 34 21" fill="none" xmlns="http://www.w3.org/2000/svg">
<path fill-rule="evenodd" clip-rule="evenodd" d="M16 2C15.4477 2 15 2.44772 15 3V19H19V3C19 2.44772 18.5523 2 18 2H16ZM13 3V19H11V13C11 11.3431 9.65685 10 8 10H6C4.34315 10 3 11.3431 3 13V19H0V21H34V19H31V9C31 7.34315 29.6569 6 28 6H26C24.3431 6 23 7.34315 23 9V19H21V3C21 1.34315 19.6569 0 18 0H16C14.3431 0 13 1.34315 13 3ZM25 19H29V9C29 8.44772 28.5523 8 28 8H26C25.4477 8 25 8.44772 25 9V19ZM5 13C5 12.4477 5.44772 12 6 12H8C8.55228 12 9 12.4477 9 13V19H5V13Z" fill="#798A89"/>
</svg>
